<svg xmlns="http://www.w3.org/2000/svg" viewBox="0 0 53 53" height="200" width="200"><path fill="#000" d="m 9.1867127,5.89713 v 41.1224 H 43.729953 V 15.76674 L 33.861182,5.89713 Z m 2.4676173,2.4676 h 22.206852 v 7.40201 h 7.401151 V 44.55277 H 11.65433 Z m 3.289589,19.40179 v 3.29043 h 23.028826 v -3.29043 z m 0,8.70422 v 3.29045 h 23.028826 v -3.29045 z" /><path stroke="#fff" stroke-width="1" fill="#ef001f" d="m 22.424992,2.64631 c -0.209604,-0.007 -0.422048,0.0654 -0.588013,0.22068 l -1.692944,1.58482 c -0.331931,0.31051 -0.34902,0.82781 -0.03852,1.15973 0.31051,0.33194 0.827804,0.34902 1.159735,0.0385 l 1.692943,-1.58482 c 0.331931,-0.3105 0.34902,-0.8278 0.03852,-1.15973 C 22.841457,2.73952 22.634597,2.65328 22.424992,2.6463 Z M 17.270619,4.79544 C 17.104274,4.77014 16.955529,4.90294 16.84405,5.2931 16.487323,6.54167 17.379265,7.78991 16.80851,8.32499 16.237746,8.86008 4.8216306,19.13289 4.8216306,19.13289 L 2.6458335,18.24124 5.0719434,22.66541 5.7132776,20.41704 9.9582288,20.0971 c 0,0 -0.427593,2.283 0.2858612,3.38885 0.713456,1.10584 1.997535,1.24814 2.568299,0.96276 0.570765,-0.28548 0.749254,-0.89208 -0.03554,-2.03362 -0.784801,-1.14151 -0.998666,-1.56959 -0.891648,-2.10469 0.107016,-0.5351 0.106641,-0.49915 0.106641,-0.49915 l 10.702728,-0.8561 c 0,0 0.570695,1.06967 1.28415,0.57025 0.713453,-0.49944 0.463027,-1.64018 -0.214766,-2.74605 C 23.086174,15.6735 18.805117,6.93386 18.377044,6.18475 18.082743,5.66972 17.63659,4.85101 17.27063,4.79544 Z M 25.4717,6.64982 c -0.208136,-0.0257 -0.426577,0.0292 -0.605786,0.16885 l -1.82921,1.42635 c -0.358419,0.27952 -0.421709,0.79243 -0.14219,1.15085 0.279517,0.35841 0.79391,0.4217 1.152327,0.14218 l 1.82773,-1.42634 C 26.232988,7.83219 26.296278,7.31928 26.016761,6.96087 25.877001,6.78166 25.679835,6.67557 25.4717,6.64982 Z m 2.02324,4.38568 -2.276516,0.43841 c -0.446299,0.0861 -0.736306,0.51495 -0.650221,0.96125 0.08609,0.44631 0.514962,0.73632 0.961262,0.65022 l 2.276515,-0.4399 c 0.446298,-0.0861 0.736304,-0.51346 0.65022,-0.95976 C 28.37011,11.2394 27.941239,10.9494 27.49494,11.0355 Z m -0.832403,5.33951 c -0.454526,0 -0.820552,0.36602 -0.820552,0.82054 0,0.45454 0.366026,0.82056 0.820552,0.82056 h 2.317987 c 0.454526,0 0.820552,-0.36602 0.820552,-0.82056 0,-0.45452 -0.366026,-0.82054 -0.820552,-0.82054 z" /></svg>
